<svg width="49" height="40" viewBox="0 0 49 40" fill="none" xmlns="http://www.w3.org/2000/svg">
<g filter="url(#filter0_d_1_6176)">
<path d="M44.1983 0.801981C43.8065 0.317828 43.1568 0.138283 42.5791 0.353737L5.88723 13.8038C5.1542 14.0741 4.63967 14.7294 4.54415 15.5142C4.44955 16.2952 4.7889 17.053 5.4255 17.4892L10.6702 21.1209C11.1784 21.4729 11.8317 21.5107 12.3759 21.2194L23.7528 15.1337L14.8859 21.8496C14.4697 22.1651 14.221 22.6681 14.221 23.195V29.4159C14.221 30.0576 14.5679 30.6455 15.1264 30.9507C15.6858 31.2559 16.3615 31.2256 16.8928 30.8702L20.8774 28.1891L24.7959 30.8993C25.1392 31.138 25.5481 31.2637 25.9607 31.2637C26.1002 31.2637 26.2403 31.2491 26.3782 31.22C26.9285 31.1036 27.4152 30.7588 27.714 30.274L44.3146 2.50704C44.6378 1.97243 44.5914 1.2883 44.1983 0.801981ZM25.8732 28.7655L21.8152 25.9587C21.533 25.7631 21.2076 25.6653 20.8826 25.6653C20.5646 25.6653 20.2463 25.7591 19.9677 25.9467L16.5659 28.2355V23.546L32.2229 11.6871C32.9221 11.1574 33.0982 10.1934 32.6322 9.44491C32.1659 8.6964 31.2323 8.44348 30.4605 8.85644L11.6495 18.9187L7.21352 15.8469L41.0016 3.46142L25.8732 28.7655Z" fill="#C4C4C4"/>
</g>
<defs>
<filter id="filter0_d_1_6176" x="0.528503" y="0.263672" width="48" height="39" filterUnits="userSpaceOnUse" color-interpolation-filters="sRGB">
<feFlood flood-opacity="0" result="BackgroundImageFix"/>
<feColorMatrix in="SourceAlpha" type="matrix" values="0 0 0 0 0 0 0 0 0 0 0 0 0 0 0 0 0 0 127 0" result="hardAlpha"/>
<feOffset dy="4"/>
<feGaussianBlur stdDeviation="2"/>
<feComposite in2="hardAlpha" operator="out"/>
<feColorMatrix type="matrix" values="0 0 0 0 0 0 0 0 0 0 0 0 0 0 0 0 0 0 0.25 0"/>
<feBlend mode="normal" in2="BackgroundImageFix" result="effect1_dropShadow_1_6176"/>
<feBlend mode="normal" in="SourceGraphic" in2="effect1_dropShadow_1_6176" result="shape"/>
</filter>
</defs>
</svg>
